PathFileType	4	(X/Y/Z)	Run_300 02
DataRate	CameraRate	NumFrames	NumMarkers	Units	OrigDataRate	OrigDataStartFrame	OrigNumFrames
100	100	4	42	mm	100	62	128
Frame#	Time	LASI			RASI			LPSI			RPSI			RTH1			RTH2			RTH3			LTH1			LTH2			LTH3			RTB1			RTB2			RTB3			LTB1			LTB2			LTB3			RCAL			RTOE			RMT5			LCAL			LTOE			LMT5			LACR			RACR			CLAV			C7			RUA1			RUA2			RUA3			RLEL			RMEL			LUA1			LUA2			LUA3			LLEL			LMEL			RFAsuperior			RFAradius			RFAulna			LFAsuperior			LFAradius			LFAulna			
		X1	Y1	Z1	X2	Y2	Z2	X3	Y3	Z3	X4	Y4	Z4	X5	Y5	Z5	X6	Y6	Z6	X7	Y7	Z7	X8	Y8	Z8	X9	Y9	Z9	X10	Y10	Z10	X11	Y11	Z11	X12	Y12	Z12	X13	Y13	Z13	X14	Y14	Z14	X15	Y15	Z15	X16	Y16	Z16	X17	Y17	Z17	X18	Y18	Z18	X19	Y19	Z19	X20	Y20	Z20	X21	Y21	Z21	X22	Y22	Z22	X23	Y23	Z23	X24	Y24	Z24	X25	Y25	Z25	X26	Y26	Z26	X27	Y27	Z27	X28	Y28	Z28	X29	Y29	Z29	X30	Y30	Z30	X31	Y31	Z31	X32	Y32	Z32	X33	Y33	Z33	X34	Y34	Z34	X35	Y35	Z35	X36	Y36	Z36	X37	Y37	Z37	X38	Y38	Z38	X39	Y39	Z39	X40	Y40	Z40	X41	Y41	Z41	X42	Y42	Z42	

51	0.93	815.87604	1000.347875	-490.48384	811.301967	993.603649	-221.634876	637.387125	1024.671116	-404.961736	644.6772549999999	1015.574515	-304.186459	754.382895	794.758027	-191.257021	879.868004	725.017398	-191.352876	865.849727	599.646343	-225.387662	732.477708	813.253864	-529.569707	800.853071	681.98605	-508.219686	736.980476	564.572318	-483.689925	879.7174659999999	401.890802	-285.331845	816.360363	396.10517	-229.627913	758.452371	326.099554	-303.976365	708.420392	332.01975	-405.173896	622.134918	275.249247	-459.643015	619.0713459999999	205.244066	-399.597991	565.596616	327.190611	-304.077326	673.467994	127.881259	-292.460465	636.687993	166.409766	-218.867212	443.283731	117.148476	-391.507885	667.592428	67.02522399999999	-369.254958	613.432998	49.857095	-462.454733	834.470191	1440.304821	-564.067872	806.521086	1495.367621	-231.813024	872.600022	1409.073975	-354.383866	756.349055	1495.519486	-404.337025	731.2644749999999	1436.694205	-151.908752	653.557341	1376.85971	-184.477506	663.727471	1330.529489	-121.982154	603.060239	1242.217486	-89.69135	601.63455	1224.146621	-170.238709	799.23514	1342.485841	-634.815759	742.939299	1260.5235	-605.768002	761.238662	1197.869656	-654.986631	775.133858	1112.399044	-678.7103980000001	744.3315710000001	1100.998151	-609.86467	683.295536	1170.423251	-64.993515	803.930574	1069.526579	-76.71794	746.044983	1027.093909	-70.621495	881.737658	1085.957218	-650.720066	1006.640357	1049.169596	-548.884969	993.461487	990.15325	-586.9820110000001	
52	0.9399999999999999	817.368482	1003.745589	-490.686426	812.149278	999.845282	-222.865804	639.323126	1029.874698	-405.658838	645.817952	1021.160398	-305.47632	759.043828	801.187457	-188.805565	885.414213	734.827975	-191.153053	874.119326	608.502842	-224.280876	727.450477	817.949122	-529.5936819999999	788.140472	684.585193	-507.950025	718.625973	570.341481	-484.745226	897.923379	408.590933	-287.306084	835.100086	396.738103	-231.864267	784.264766	322.497871	-307.953176	682.797279	337.778329	-406.619105	598.022205	282.570526	-463.108825	592.462613	210.357805	-399.995719	590.573177	306.833044	-307.969695	716.624088	119.013309	-296.655133	675.501896	152.976016	-222.835035	416.981045	125.288109	-393.659313	637.416954	67.972579	-368.024074	583.328896	50.63805	-461.45434	837.446036	1447.20062	-562.873465	804.636494	1500.775136	-231.261821	872.953901	1415.0018	-352.875946	757.245873	1500.608978	-404.444056	727.194574	1443.183736	-153.056168	649.9127089999999	1384.541735	-187.922676	657.62713	1337.979749	-124.892999	594.794588	1250.608367	-94.428735	594.560865	1232.740201	-175.215458	803.531889	1348.855285	-633.640169	748.325681	1266.401506	-604.88107	767.3896140000001	1203.339101	-651.509545	782.502142	1117.993347	-675.483449	752.226161	1106.996425	-605.375979	673.932283	1178.303114	-68.273464	793.798829	1076.381911	-77.74168899999999	735.4902990000001	1034.38685	-72.76939900000001	889.775494	1095.710175	-645.8852010000001	1015.123354	1066.28561	-542.330469	1004.935146	1005.999863	-579.122517	
53	0.95	819.339896	1007.69231	-490.685126	813.1870249999999	1006.640228	-223.709303	642.942897	1035.359467	-406.756391	647.126865	1027.339351	-306.385996	763.7739800000001	808.873077	-186.42577	890.321816	744.865004	-191.015938	881.001449	617.523073	-223.247809	724.420933	823.133221	-530.36317	776.39837	688.465166	-507.444878	702.417628	577.700324	-486.870049	915.596544	415.510717	-290.313268	853.3400799999999	396.738332	-233.980547	809.717788	318.208276	-311.498095	658.020639	344.80998	-408.78193	575.08524	291.652429	-467.849065	567.242293	217.031201	-400.90716	617.250389	285.539453	-312.833855	762.1065129999999	112.16912	-302.09461	715.421281	140.285674	-226.853672	392.26768	135.561602	-395.74529	608.761493	68.22861	-367.795906	554.793956	52.120447	-460.767901	840.770134	1454.622977	-561.380399	802.7228710000001	1506.595062	-230.651147	873.596688	1421.48919	-351.140009	758.594845	1505.974161	-404.626056	723.301327	1450.090986	-154.170543	646.6791030000001	1392.457892	-191.19138	652.03616	1345.760049	-127.702745	587.229097	1259.252444	-99.19569	588.1766730000001	1241.640325	-180.186147	808.088244	1355.841583	-632.783148	753.441908	1272.827148	-603.9717010000001	774.242061	1209.556646	-649.414999	790.037273	1124.260896	-672.748135	758.875008	1114.138627	-601.424969	665.3569230000001	1186.707787	-71.599795	784.838162	1084.073355	-78.797678	726.102212	1042.278064	-75.070356	896.847947	1106.422038	-641.191371	1021.989721	1083.877853	-535.914491	1015.310342	1022.457528	-571.70812	
54	0.96	821.923422	1012.027569	-490.312589	814.317909	1013.820407	-224.233448	647.820983	1040.963204	-408.04121	648.506318	1033.889738	-306.976309	768.097008	817.323897	-184.373766	894.581114	754.676224	-190.726759	886.389356	626.461042	-222.382353	721.647824	828.519635	-531.409054	765.6602820000001	693.250454	-507.004676	687.865043	586.088423	-489.978322	932.427225	422.354002	-294.002936	871.0456820000001	396.081768	-236.175403	834.719128	313.348066	-314.92701	634.486644	352.946803	-411.606398	552.844774	301.828581	-472.72364	543.669941	225.208925	-403.030368	645.950454	263.61771	-318.248351	809.098475	107.290718	-309.186658	756.394572	127.769875	-231.45364	369.379079	147.624138	-397.678164	581.407147	67.246163	-368.889407	528.535271	54.015347	-460.863734	844.226414	1462.22499	-559.7424140000001	800.81951	1512.636847	-230.046468	874.326713	1428.334454	-349.320616	760.1032279999999	1511.565841	-404.754954	719.630079	1457.206031	-155.285291	643.967093	1400.380227	-194.330854	647.017153	1353.617453	-130.433951	580.411422	1267.917147	-103.859898	582.501469	1250.680152	-184.96767	813.361832	1363.156136	-632.243972	758.40148	1279.851928	-603.379068	781.398922	1216.300502	-648.635584	797.6434379999999	1130.955648	-670.681987	764.330325	1121.936502	-598.329264	657.623054	1195.256475	-74.908531	776.9813370000001	1092.143355	-79.918644	717.970419	1050.338304	-77.597989	903.50019	1117.584014	-636.81026	1027.550984	1101.483675	-529.519538	1024.463282	1039.060791	-564.651247	
